# xmcd
#
# Track frame offsets: 
#        150
#        18058
#        33955
#        49245
#        66702
#        83832
#        100439
#        114168
#        131247
#        146874
#
# Disc length: 2196 seconds
#
# Revision: 0
# Processed by: cddbd v1.5.1PL0 Copyright (c) Steve Scherf et al.
# Submitted via: ExactAudioCopy v0.95a4
#
DISCID=8d08920a
DTITLE=Lana - Lana
DYEAR=2004
DGENRE=Pop
TTITLE0=Roðena da budem prva
TTITLE1=Na pola
TTITLE2=Tvaj bivsa
TTITLE3=Otvori srce
TTITLE4=Samo za tvoje oèi
TTITLE5=Preboli me
TTITLE6=Sto mi vrijedi
TTITLE7=Otrov
TTITLE8=Sada je kasno
TTITLE9=Za sve
EXTD=
EXTT0=
EXTT1=
EXTT2=
EXTT3=
EXTT4=
EXTT5=
EXTT6=
EXTT7=
EXTT8=
EXTT9=
PLAYORDER=
